<svg width="32" height="31" viewBox="0 0 32 31" fill="none" xmlns="http://www.w3.org/2000/svg">
<g id="category 1" clip-path="url(#clip0_14_3276)">
<path id="Vector" d="M10.9101 13.5602H3.18074C2.39815 13.5595 1.64779 13.2635 1.09433 12.7371C0.540861 12.2107 0.229484 11.497 0.228516 10.7524V3.49029C0.229484 2.74575 0.540861 2.03198 1.09433 1.50559C1.64779 0.979207 2.39815 0.683193 3.18074 0.682503H10.9101C11.6926 0.683423 12.4427 0.979539 12.9959 1.5059C13.5492 2.03226 13.8605 2.7459 13.8614 3.49029V10.7524C13.8605 11.4968 13.5492 12.2105 12.9959 12.7368C12.4427 13.2632 11.6926 13.5593 10.9101 13.5602ZM3.18074 2.85706C3.00421 2.85729 2.83495 2.92405 2.71004 3.04273C2.58512 3.16141 2.51471 3.32234 2.51423 3.49029V10.7524C2.51471 10.9204 2.58512 11.0813 2.71004 11.2C2.83495 11.3187 3.00421 11.3854 3.18074 11.3857H10.9101C11.0866 11.3854 11.2557 11.3186 11.3805 11.1999C11.5053 11.0812 11.5755 10.9203 11.5757 10.7524V3.49029C11.5755 3.32242 11.5053 3.16148 11.3805 3.04278C11.2557 2.92408 11.0866 2.85729 10.9101 2.85706H3.18074Z" fill="#524F5E"/>
<path id="Vector_2" d="M10.9477 30.6914H3.21834C2.43566 30.6904 1.68531 30.3942 1.13187 29.8677C0.578429 29.3412 0.267081 28.6273 0.266113 27.8827V20.6214C0.267082 19.8769 0.578459 19.1631 1.13193 18.6367C1.68539 18.1104 2.43574 17.8143 3.21834 17.8137H10.9477C11.7298 17.815 12.4795 18.1114 13.0324 18.6377C13.5852 19.164 13.8962 19.8774 13.8972 20.6214V27.8827C13.8965 28.627 13.5856 29.3405 13.0327 29.867C12.4798 30.3935 11.73 30.69 10.9477 30.6914ZM3.21834 19.9882C3.0418 19.9884 2.87255 20.0552 2.74763 20.1739C2.62272 20.2926 2.55231 20.4535 2.55183 20.6214V27.8827C2.55207 28.0508 2.62237 28.212 2.74731 28.3308C2.87226 28.4497 3.04165 28.5166 3.21834 28.5168H10.9477C11.1243 28.5164 11.2934 28.4494 11.4182 28.3305C11.5429 28.2117 11.6131 28.0507 11.6133 27.8827V20.6214C11.6131 20.4536 11.5429 20.2926 11.4181 20.1739C11.2933 20.0552 11.1242 19.9884 10.9477 19.9882H3.21834Z" fill="#524F5E"/>
<path id="Vector_3" d="M28.8203 30.6914H21.0909C20.3082 30.6904 19.5579 30.3942 19.0044 29.8677C18.451 29.3412 18.1396 28.6273 18.1387 27.8827V20.6214C18.1396 19.8769 18.451 19.1631 19.0045 18.6367C19.558 18.1104 20.3083 17.8143 21.0909 17.8137H28.8203C29.6027 17.8146 30.3528 18.1107 30.9061 18.6371C31.4594 19.1634 31.7706 19.877 31.7716 20.6214V27.8827C31.7709 28.6273 31.4597 29.3411 30.9064 29.8677C30.3531 30.3942 29.6029 30.6904 28.8203 30.6914ZM21.0909 19.9926C20.9144 19.9928 20.7451 20.0595 20.6202 20.1782C20.4953 20.2969 20.4249 20.4578 20.4244 20.6258V27.8871C20.4246 28.0552 20.4949 28.2163 20.6199 28.3352C20.7448 28.454 20.9142 28.5209 21.0909 28.5212H28.8203C28.9968 28.5207 29.166 28.4537 29.2907 28.3349C29.4155 28.216 29.4856 28.055 29.4859 27.8871V20.6214C29.4856 20.4536 29.4154 20.2926 29.2907 20.1739C29.1659 20.0552 28.9967 19.9884 28.8203 19.9882L21.0909 19.9926Z" fill="#524F5E"/>
<path id="Vector_4" d="M24.9601 13.5602C23.6241 13.5508 22.321 13.1653 21.215 12.4523C20.1091 11.7393 19.2497 10.7307 18.7453 9.55378C18.2409 8.37683 18.1141 7.08416 18.3808 5.83873C18.6475 4.59331 19.2958 3.45088 20.244 2.55547C21.1922 1.66006 22.3978 1.05176 23.7088 0.807255C25.0198 0.562747 26.3776 0.692978 27.611 1.18153C28.8443 1.67008 29.898 2.49508 30.6392 3.55253C31.3805 4.60997 31.776 5.85252 31.7761 7.12354C31.7671 8.83632 31.0445 10.4758 29.7668 11.6825C28.489 12.8891 26.7604 13.5644 24.9601 13.5602ZM24.9601 2.86141C24.0762 2.87085 23.215 3.12882 22.485 3.60285C21.7549 4.07688 21.1885 4.74578 20.8571 5.52537C20.5257 6.30495 20.4441 7.16038 20.6226 7.98397C20.8011 8.80757 21.2317 9.56253 21.8602 10.1538C22.4887 10.7451 23.287 11.1463 24.1547 11.3069C25.0223 11.4675 25.9205 11.3804 26.7362 11.0564C27.5519 10.7325 28.2486 10.1862 28.7387 9.4864C29.2288 8.78657 29.4903 7.96446 29.4903 7.12354C29.4831 5.98658 29.002 4.89881 28.1527 4.09894C27.3033 3.29906 26.1551 2.85243 24.9601 2.85706V2.86141Z" fill="#524F5E"/>
</g>
<defs>
<clipPath id="clip0_14_3276">
<rect width="32" height="30.4438" fill="white" transform="translate(0 0.46505)"/>
</clipPath>
</defs>
</svg>
