<svg width="34" height="39" viewBox="0 0 34 39" fill="none" xmlns="http://www.w3.org/2000/svg">
<path d="M31.5765 18.7378C31.3617 18.7362 31.1527 18.6572 30.9788 18.5119L17.1501 7.11926L3.32143 18.5119C3.09958 18.6635 2.83652 18.7137 2.5842 18.6524C2.33188 18.5912 2.10862 18.423 1.95851 18.181C1.8084 17.9391 1.74233 17.641 1.77336 17.3456C1.80439 17.0502 1.93025 16.7789 2.12611 16.5854L16.5525 4.69327C16.727 4.54987 16.9359 4.47281 17.1501 4.47281C17.3643 4.47281 17.5733 4.54987 17.7478 4.69327L32.1741 16.5854C32.3501 16.7324 32.4812 16.9397 32.549 17.1779C32.6167 17.4161 32.6174 17.6728 32.5512 17.9115C32.4849 18.1503 32.3549 18.3587 32.1799 18.5071C32.0049 18.6555 31.7937 18.7362 31.5765 18.7378Z" fill="#524F5E"/>
<path d="M5.81512 11.6026C5.54183 11.6026 5.27973 11.4773 5.08648 11.2543C4.89323 11.0312 4.78467 10.7288 4.78467 10.4134V5.65653C4.78467 5.34113 4.89323 5.03865 5.08648 4.81563C5.27973 4.59261 5.54183 4.46732 5.81512 4.46732H9.93693C10.2102 4.46732 10.4723 4.59261 10.6656 4.81563C10.8588 5.03865 10.9674 5.34113 10.9674 5.65653C10.9674 5.97192 10.8588 6.2744 10.6656 6.49742C10.4723 6.72044 10.2102 6.84573 9.93693 6.84573H6.84557V10.4134C6.84557 10.7288 6.73701 11.0312 6.54376 11.2543C6.35051 11.4773 6.08841 11.6026 5.81512 11.6026Z" fill="#524F5E"/>
<path d="M26.4242 35.3868H21.2719C20.9986 35.3868 20.7365 35.2615 20.5433 35.0385C20.35 34.8154 20.2415 34.5129 20.2415 34.1976V25.8731H14.0587V34.1976C14.0587 34.5129 13.9502 34.8154 13.7569 35.0385C13.5637 35.2615 13.3016 35.3868 13.0283 35.3868H7.87603C7.05615 35.3868 6.26985 35.0109 5.69011 34.3418C5.11036 33.6728 4.78467 32.7653 4.78467 31.8191V19.927C4.78467 19.6116 4.89323 19.3092 5.08648 19.0861C5.27973 18.8631 5.54183 18.7378 5.81512 18.7378C6.08841 18.7378 6.35051 18.8631 6.54376 19.0861C6.73701 19.3092 6.84557 19.6116 6.84557 19.927V31.8191C6.84557 32.1345 6.95414 32.437 7.14739 32.66C7.34063 32.8831 7.60273 33.0083 7.87603 33.0083H11.9978V24.6839C11.9978 24.3685 12.1064 24.066 12.2997 23.843C12.4929 23.62 12.755 23.4947 13.0283 23.4947H21.2719C21.5452 23.4947 21.8073 23.62 22.0006 23.843C22.1938 24.066 22.3024 24.3685 22.3024 24.6839V33.0083H26.4242C26.6975 33.0083 26.9596 32.8831 27.1528 32.66C27.3461 32.437 27.4546 32.1345 27.4546 31.8191V19.927C27.4546 19.6116 27.5632 19.3092 27.7565 19.0861C27.9497 18.8631 28.2118 18.7378 28.4851 18.7378C28.7584 18.7378 29.0205 18.8631 29.2137 19.0861C29.407 19.3092 29.5155 19.6116 29.5155 19.927V31.8191C29.5155 32.7653 29.1898 33.6728 28.6101 34.3418C28.0304 35.0109 27.2441 35.3868 26.4242 35.3868Z" fill="#524F5E"/>
</svg>
