<svg width="34" height="32" viewBox="0 0 34 32" fill="none" xmlns="http://www.w3.org/2000/svg">
<g id="price 1" clip-path="url(#clip0_81_5002)">
<path id="Vector" d="M31.1268 3.52004C31.1268 2.6362 30.3976 1.92004 29.4977 1.92004C29.396 1.92004 19.8039 1.92132 19.8039 1.92132C18.9372 1.92132 18.1077 1.87652 17.6268 2.34884L2.81576 16.8948C2.3342 17.3671 2.3342 18.1338 2.81576 18.6061L14.1373 29.7255C14.6182 30.1978 15.3989 30.1978 15.8798 29.7255L30.6902 15.1789C31.1711 14.7072 31.1255 13.9117 31.1255 13.0413C31.1255 13.0413 31.1268 3.61988 31.1268 3.52004Z" fill="#00C908"/>
<path id="Vector_2" d="M25.9136 8.96C26.9933 8.96 27.8686 8.10038 27.8686 7.04C27.8686 5.97961 26.9933 5.12 25.9136 5.12C24.834 5.12 23.9587 5.97961 23.9587 7.04C23.9587 8.10038 24.834 8.96 25.9136 8.96Z" fill="white"/>
</g>
<defs>
<clipPath id="clip0_81_5002">
<rect width="32.5818" height="32" fill="white" transform="translate(0.499878)"/>
</clipPath>
</defs>
</svg>
